<?xml version="1.0" standalone="no"?>
<!DOCTYPE svg PUBLIC "-//W3C//DTD SVG 20010904//EN"
 "http://www.w3.org/TR/2001/REC-SVG-20010904/DTD/svg10.dtd">
<svg version="1.0" xmlns="http://www.w3.org/2000/svg"
 width="4500.000000pt" height="4500.000000pt" viewBox="0 0 4500.000000 4500.000000"
 preserveAspectRatio="xMidYMid meet">

<g transform="translate(0.000000,4500.000000) scale(0.100000,-0.100000)"
fill="#000000" stroke="none">
<path d="M21975 35973 c-243 -11 -476 -26 -625 -39 -2867 -244 -5572 -1395
-7735 -3292 -320 -281 -776 -727 -1051 -1027 -1078 -1179 -1924 -2506 -2528
-3969 -478 -1155 -794 -2384 -931 -3621 -35 -320 -33 -297 -50 -535 -46 -662
-46 -1329 0 -1975 210 -2921 1365 -5685 3294 -7890 367 -419 846 -898 1266
-1267 2164 -1898 4878 -3052 7740 -3293 363 -30 510 -36 980 -42 828 -10 1509
38 2270 158 3478 547 6606 2439 8712 5270 1620 2176 2526 4719 2653 7444 21
463 11 1150 -25 1625 -218 2880 -1336 5578 -3220 7770 -324 377 -604 669 -995
1037 -2167 2042 -4956 3307 -7920 3592 -483 47 -818 61 -1350 59 -234 -1 -452
-3 -485 -5z m1145 -1394 c2637 -134 5115 -1108 7150 -2810 516 -432 1076 -992
1495 -1494 1002 -1202 1730 -2504 2216 -3965 344 -1034 537 -2062 600 -3200
24 -435 13 -1132 -26 -1605 -219 -2638 -1285 -5112 -3055 -7085 -144 -161
-501 -532 -507 -527 -2 2 8 69 21 148 101 587 150 1109 150 1614 1 384 -5 446
-65 647 -66 222 -137 334 -345 549 -199 204 -272 304 -303 414 -6 22 -16 119
-21 215 -15 254 -42 338 -142 441 -78 78 -156 125 -419 250 -645 308 -1037
466 -1289 520 -108 23 -161 23 -340 -1 -53 -7 -144 -9 -240 -5 -178 7 -451 33
-463 44 -4 4 -10 30 -14 58 l-6 51 84 6 c46 3 129 8 184 11 540 31 1105 142
1484 292 525 207 1039 570 1586 1117 621 622 1119 1306 1489 2046 413 827 526
1484 326 1895 -168 345 -506 505 -1070 505 -274 0 -527 -29 -1070 -121 -774
-132 -892 -145 -1280 -135 -146 3 -303 9 -350 12 l-86 7 49 -200 50 -200 96
-7 c53 -3 224 -6 381 -6 379 0 524 16 1105 120 571 102 808 131 1085 132 337
1 520 -45 643 -161 66 -62 101 -126 127 -227 95 -370 -151 -1131 -613 -1899
-528 -876 -1288 -1706 -1997 -2180 -432 -288 -807 -433 -1352 -524 -260 -44
-635 -81 -815 -81 -69 0 -73 1 -73 23 0 70 22 359 36 460 56 439 146 690 526
1472 458 940 549 1147 614 1391 48 184 41 396 -26 791 -86 503 -316 1410 -399
1573 -52 102 -387 624 -727 1135 -278 417 -285 425 -356 411 -59 -11 -113 -58
-147 -128 -74 -153 -57 -349 56 -638 59 -152 210 -458 317 -645 70 -121 100
-188 156 -344 39 -107 69 -196 67 -197 -2 -2 -56 83 -120 189 -102 168 -140
218 -298 402 -379 441 -620 746 -739 937 -35 56 -108 189 -162 293 -54 105
-107 201 -117 215 -59 76 -236 -32 -292 -178 -27 -71 -29 -172 -6 -262 24 -89
121 -284 201 -403 38 -57 58 -94 47 -88 -36 20 -211 214 -273 305 -90 130
-180 219 -241 235 -142 40 -213 -37 -211 -229 0 -120 20 -197 83 -325 58 -116
166 -263 312 -424 57 -62 122 -134 144 -159 l40 -46 -50 34 c-27 19 -128 92
-223 163 -186 137 -185 137 -245 95 -94 -67 -102 -271 -20 -532 36 -117 112
-272 248 -506 253 -437 336 -674 366 -1045 29 -370 -61 -940 -222 -1405 -290
-834 -344 -1033 -379 -1379 -14 -148 -12 -514 5 -736 8 -104 15 -194 14 -200
-1 -41 -147 399 -199 595 -67 262 -91 425 -97 665 -8 335 26 520 155 842 l21
52 -112 -55 -112 -55 -51 -113 c-28 -63 -62 -134 -77 -158 -111 -190 -302
-359 -622 -549 -77 -46 -176 -114 -220 -151 -368 -315 -721 -452 -1120 -435
-228 9 -394 67 -563 194 -167 126 -304 210 -545 337 -376 196 -640 397 -1017
775 -302 303 -534 578 -798 948 -402 563 -735 1185 -915 1709 -54 159 -98 304
-92 304 2 0 40 -71 85 -157 424 -813 947 -1548 1578 -2219 156 -166 212 -222
212 -212 0 4 -13 44 -29 90 -282 801 -428 1860 -381 2753 49 921 267 1691 640
2258 281 428 658 752 1075 922 50 21 92 39 94 41 2 1 -28 87 -67 191 -82 220
-168 495 -246 788 -52 196 -86 339 -261 1090 -37 160 -70 295 -74 301 -11 20
-325 -66 -569 -157 -485 -181 -890 -436 -1222 -769 -386 -385 -600 -772 -786
-1423 -111 -388 -188 -800 -229 -1217 -32 -340 -38 -510 -40 -1205 -2 -772 -4
-806 -58 -990 -31 -105 -32 -118 -31 -275 0 -124 6 -196 22 -290 80 -450 265
-1044 553 -1771 l110 -277 29 -333 c33 -374 54 -574 75 -730 129 -945 435
-1853 883 -2619 202 -346 377 -574 619 -811 400 -391 828 -637 1508 -866 l220
-74 -136 5 c-841 33 -1633 404 -2217 1039 -411 446 -740 1032 -969 1727 -119
360 -211 740 -282 1160 -22 128 -41 234 -43 236 -11 11 -598 -830 -598 -856 0
-20 -39 -8 -248 76 -905 361 -1702 842 -2337 1408 -55 49 -101 92 -103 96 -1
4 41 -2 95 -12 407 -78 825 -114 1141 -97 685 36 1099 286 1256 757 107 323
95 725 -35 1235 -89 347 -170 547 -474 1167 -264 539 -322 678 -448 1065 -174
537 -280 1096 -318 1688 -15 238 -7 858 15 1077 85 847 289 1570 643 2280 260
522 549 939 908 1309 816 843 1689 1106 2312 696 103 -68 300 -260 387 -378
163 -220 345 -559 471 -877 151 -382 240 -699 430 -1525 169 -734 269 -1103
396 -1451 409 -1126 1010 -2017 1742 -2587 141 -110 493 -352 574 -396 20 -10
23 -7 38 42 10 28 32 79 50 112 l34 61 -40 114 -39 115 -138 95 c-164 114
-237 169 -357 269 -573 483 -1074 1234 -1430 2146 -158 405 -266 783 -430
1505 -243 1071 -371 1485 -609 1975 -188 388 -356 643 -565 858 -256 264 -507
408 -835 479 -85 19 -133 22 -311 23 -135 0 -237 -5 -285 -14 -588 -106 -1131
-424 -1670 -977 -912 -936 -1519 -2321 -1664 -3794 -116 -1177 57 -2383 496
-3460 97 -236 276 -601 339 -691 l18 -26 -1151 -1324 c-632 -728 -1157 -1332
-1165 -1341 -14 -16 -12 -23 33 -75 75 -90 257 -275 380 -388 662 -606 1516
-1129 2479 -1517 128 -51 219 -93 219 -101 -1 -6 -20 -66 -42 -132 -22 -66
-43 -142 -47 -168 -5 -33 -14 -53 -29 -62 -31 -21 -348 -142 -560 -214 -263
-90 -433 -134 -780 -202 -584 -113 -820 -182 -962 -280 -106 -73 -241 -106
-569 -139 -274 -28 -378 -49 -482 -99 -108 -52 -164 -91 -238 -166 -189 -192
-340 -547 -454 -1067 -48 -215 -75 -367 -131 -728 -23 -146 -57 -350 -76 -455
-43 -243 -286 -1458 -292 -1465 -6 -7 -145 141 -316 336 -1007 1145 -1794
2486 -2309 3929 -398 1118 -633 2332 -683 3530 -14 324 -7 1092 11 1256 2 19
6 79 10 134 7 111 8 122 30 350 187 1890 830 3720 1876 5342 461 714 982 1357
1609 1983 949 950 1964 1682 3160 2279 1600 799 3316 1222 5130 1265 189 4
660 -3 880 -15z m-3735 -8185 c133 -1067 353 -1928 672 -2628 34 -77 61 -141
60 -143 -2 -1 -35 41 -74 95 -310 430 -548 1035 -657 1672 -60 353 -81 659
-72 1065 8 337 15 416 28 295 5 -41 24 -201 43 -356z m520 -4264 c285 -449
590 -879 849 -1199 295 -364 712 -807 1111 -1180 123 -114 118 -115 -37 -9
-781 537 -1496 1372 -1962 2293 -89 175 -246 524 -246 547 0 6 42 -59 93 -143
52 -85 138 -224 192 -309z m250 -1415 c58 -100 143 -219 254 -355 110 -136
441 -467 599 -599 647 -541 1476 -1012 2182 -1239 767 -247 1590 -285 2245
-103 38 11 71 18 72 17 6 -6 -188 -96 -280 -130 -272 -102 -548 -146 -920
-146 -428 0 -854 71 -1322 221 -1055 337 -2141 1077 -2597 1770 -133 202 -251
459 -283 619 -9 44 -7 42 50 -55z"/>
<path d="M22399 31943 c245 -489 412 -1015 636 -2003 183 -809 291 -1188 450
-1590 241 -608 533 -1115 883 -1535 157 -188 433 -446 618 -578 l51 -37 22 56
c74 195 260 334 446 334 31 0 36 5 67 63 49 93 182 222 283 274 111 58 189 76
300 71 75 -3 101 -9 155 -35 127 -59 192 -131 283 -310 l61 -121 37 61 c70
117 189 218 318 269 48 19 75 22 186 23 l131 0 76 -37 c55 -28 92 -56 139
-105 82 -87 387 -541 849 -1263 193 -302 232 -372 275 -497 33 -93 36 -98 67
-105 74 -15 521 -30 749 -25 271 5 314 11 924 116 641 111 884 136 1262 129
l245 -4 -79 76 c-853 815 -1835 1588 -3148 2480 -561 381 -930 646 -1615 1161
-386 289 -1266 955 -1345 1017 l-30 24 35 -20 c19 -11 446 -264 949 -562 502
-298 920 -544 927 -547 16 -6 -62 226 -146 432 -252 619 -548 1083 -940 1476
-289 289 -592 499 -945 655 -653 288 -1429 356 -2278 199 l-127 -24 -401 280
c-220 153 -402 279 -405 279 -2 0 13 -35 35 -77z"/>
<path d="M16225 31169 l-50 -153 -153 -50 -153 -51 153 -50 153 -50 50 -153
50 -154 51 154 50 153 154 50 153 51 -154 50 -153 50 -46 139 c-25 77 -48 146
-51 153 -2 7 -27 -55 -54 -139z"/>
<path d="M28715 31058 l-50 -152 -152 -50 -152 -51 153 -49 153 -49 49 -148
c26 -82 51 -146 55 -141 4 4 26 67 50 141 24 74 48 138 54 143 5 5 75 31 155
57 l145 48 -152 49 -153 48 -51 153 c-28 84 -51 153 -52 153 -1 -1 -24 -69
-52 -152z"/>
<path d="M31830 28183 l-95 -288 -288 -95 -289 -95 289 -95 288 -95 22 -65
c12 -36 55 -165 95 -288 l72 -224 83 254 c46 139 87 269 93 289 l10 35 291 94
291 94 -254 83 c-139 46 -269 87 -289 93 l-36 10 -77 238 c-43 130 -85 261
-94 290 l-18 54 -94 -289z"/>
<path d="M13645 28020 l-39 -120 -125 -41 -126 -42 124 -42 125 -41 42 -125
c23 -69 44 -117 47 -109 4 8 22 65 42 126 l35 110 127 40 128 40 -120 39 c-66
21 -125 43 -131 49 -6 6 -26 58 -43 116 -18 58 -36 108 -40 112 -4 5 -25 -46
-46 -112z"/>
<path d="M14591 25247 c-57 -177 -109 -327 -115 -333 -6 -7 -126 -49 -266 -94
-140 -45 -286 -92 -325 -105 l-70 -23 333 -108 332 -108 91 -281 c50 -154 99
-303 108 -332 l18 -52 56 172 c30 95 79 244 108 332 l52 161 321 103 c177 57
324 107 329 111 4 3 -30 18 -75 32 -199 62 -564 182 -570 187 -4 3 -54 152
-113 330 -58 179 -106 326 -108 327 -2 2 -49 -142 -106 -319z"/>
<path d="M12267 22556 l-48 -145 -145 -48 c-79 -26 -144 -50 -144 -53 0 -3 65
-27 145 -53 l144 -48 47 -145 c26 -79 50 -144 54 -144 3 0 26 62 50 138 24 75
49 142 54 148 6 6 73 30 149 54 75 24 137 46 137 49 0 4 -66 29 -147 56 l-146
50 -45 143 c-25 78 -48 142 -52 142 -3 0 -27 -65 -53 -144z"/>
<path d="M13846 20113 c-9 -32 -47 -152 -85 -268 l-67 -210 -273 -90 -272 -91
272 -89 272 -90 84 -260 c46 -143 85 -264 87 -270 2 -5 43 112 91 261 l89 271
270 89 271 88 -271 88 -270 88 -88 270 c-48 149 -88 270 -90 270 -1 0 -10 -26
-20 -57z"/>
<path d="M32282 19442 l-72 -221 -208 -67 c-114 -36 -210 -69 -215 -73 -4 -4
90 -38 208 -76 l215 -69 72 -220 71 -221 72 220 72 220 219 72 c151 49 213 74
199 78 -11 4 -110 37 -220 73 l-200 67 -71 219 -70 220 -72 -222z"/>
</g>
</svg>
